<?xml version="1.0" encoding="UTF-8"?><svg id="a" xmlns="http://www.w3.org/2000/svg" viewBox="0 0 50 50"><path d="M25.7,38.72c-5.17,0-9.7-2.72-12.16-6.77,3.15,8.76,11.73,15.07,21.8,15.07.97,0,1.92-.07,2.86-.18,4.99-2.72,8.96-7,11.19-12.16h-13.71c-2.56,2.5-6.09,4.05-9.99,4.05h.01ZM12.91,19.22c2.25-4.69,7.13-7.94,12.79-7.94,4.51,0,8.53,2.07,11.11,5.28h13.08c-2.39-6.47-7.46-11.71-13.9-14.46-.22,0-.43-.02-.65-.02-10.85,0-19.97,7.32-22.43,17.14ZM11.01,24.55C11.01,12.3,20.62,2.2,32.89,1c-2.28-.65-4.69-1-7.19-1C11.53,0,0,11.21,0,25s11.53,25,25.7,25c3.37,0,6.59-.64,9.54-1.79-13.37-.06-24.23-10.65-24.23-23.67h0Z" style="fill:#231f20;"/><path d="M19.4,18.52c-2.24,0-4.02.6-5.32,1.81-1.3,1.21-1.96,2.84-1.96,4.87,0,1.9.64,3.44,1.92,4.62,1.28,1.18,2.98,1.78,5.11,1.78s3.91-.6,5.21-1.8c1.3-1.2,1.95-2.83,1.95-4.9,0-1.9-.63-3.44-1.9-4.62-1.27-1.18-2.93-1.77-5-1.77h-.01ZM23.04,28.92c-.95.91-2.24,1.36-3.89,1.36-1.54,0-2.79-.48-3.75-1.43-.96-.95-1.44-2.21-1.44-3.77s.49-2.82,1.47-3.78c.98-.96,2.26-1.44,3.84-1.44s2.89.46,3.81,1.37c.92.91,1.38,2.21,1.38,3.88s-.47,2.9-1.42,3.8h0Z" style="fill:#231f20;"/><path d="M36.63,26.88c-.16-.21-.33-.4-.5-.56-.17-.17-.34-.31-.53-.43s-.4-.23-.65-.32v-.04c.51-.11.97-.27,1.37-.47.41-.2.76-.45,1.05-.74.29-.29.51-.62.67-.98s.24-.77.24-1.21c0-.57-.11-1.06-.34-1.48s-.55-.77-.96-1.06-.89-.49-1.44-.63-1.16-.21-1.81-.21h-4.47v12.66h1.76v-5.39h1.44c.33,0,.62.04.88.1.26.07.5.18.73.32s.45.34.66.57c.22.23.44.51.67.84l2.51,3.55h2.09l-2.81-3.81c-.2-.28-.39-.52-.55-.73v.02h0ZM34.61,24.52c-.37.11-.78.17-1.22.17h-2.38v-4.59h2.41c.98,0,1.73.19,2.25.57s.78.91.78,1.59c0,.38-.08.72-.23,1.02-.15.3-.37.56-.64.77-.27.21-.59.37-.97.48h0Z" style="fill:#231f20;"/><polygon points="43.81 30.08 43.81 25.65 49.23 25.65 49.23 24.32 43.81 24.31 43.81 20.1 49.67 20.11 49.67 18.76 42.05 18.76 42.05 31.42 50 31.43 50 30.09 43.81 30.08" style="fill:#231f20;"/></svg>