<svg xmlns="http://www.w3.org/2000/svg" fill="none" viewBox="0 0 16 16" id="Facebook-1--Streamline-Plump" height="16" width="16"><desc>Facebook 1 Streamline Icon: https://streamlinehq.com</desc><g id="facebook-1--media-facebook-social"><path id="Subtract" fill="#ffffff" d="M9.835133333333333 15.481733333333333c0.002333333333333333 -0.02213333333333333 0.003533333333333333 -0.04463333333333333 0.003533333333333333 -0.06736666666666666V10.0132h1.8462999999999998c0.2960333333333333 0 0.5625 -0.19493333333333332 0.6057666666666666 -0.4877666666666667 0.07156666666666667 -0.4844333333333333 0.041166666666666664 -0.9249333333333333 -0.0051333333333333335 -1.2381666666666666 -0.042499999999999996 -0.28756666666666664 -0.2987666666666666 -0.47686666666666666 -0.5894333333333333 -0.47686666666666666H9.838666666666665c0 -1.6644999999999999 0.27699999999999997 -1.9067 1.8382999999999998 -1.9369999999999998 0.29956666666666665 -0.0058 0.5685 -0.2036 0.6119666666666667 -0.5000666666666667 0.0731 -0.49833333333333335 0.04396666666666666 -0.9337333333333333 -0.0019 -1.2400333333333333 -0.042366666666666664 -0.2829333333333333 -0.29606666666666664 -0.4673666666666666 -0.5821333333333333 -0.46486666666666665 -2.7594666666666665 0.024066666666666667 -4.331133333333333 0.3503333333333333 -4.331133333333333 4.141966666666667h-1.4296c-0.2778333333333333 0 -0.5245 0.1741333333333333 -0.5665333333333333 0.44876666666666665 -0.04526666666666666 0.2959 -0.07263333333333333 0.7247999999999999 0.0029333333333333334 1.2464666666666666 0.043666666666666666 0.30136666666666667 0.3147333333333333 0.5075666666666666 0.6192666666666666 0.5075666666666666h1.3739333333333335v5.484766666666666c-2.1366666666666667 -0.014033333333333332 -3.6660333333333335 -0.09836666666666666 -4.661866666666667 -0.17926666666666663 -1.09595 -0.08903333333333333 -1.94156 -0.9346666666666665 -2.030603333333333 -2.0305999999999997C0.5926933333333333 12.197566666666667 0.5 10.467133333333333 0.5 8c0 -2.467133333333333 0.09269333333333332 -4.197566666666667 0.18129666666666666 -5.2881 0.08904333333333332 -1.0959533333333331 0.9346533333333333 -1.94156 2.0306066666666664 -2.030603333333333C3.802433333333333 0.5926899999999999 5.532866666666667 0.5 8 0.5c2.467133333333333 0 4.197566666666667 0.09269333333333332 5.2881 0.18129666666666666 1.0959333333333332 0.08904333333333332 1.9415666666666667 0.9346533333333333 2.0305999999999997 2.030603333333333 0.08859999999999998 1.0905333333333331 0.18130000000000002 2.820966666666666 0.18130000000000002 5.2881 0 2.467133333333333 -0.0927 4.197566666666667 -0.18130000000000002 5.2881 -0.08903333333333333 1.0959666666666665 -0.9346666666666665 1.9415666666666667 -2.0305999999999997 2.0305999999999997 -0.7968 0.06473333333333334 -1.9352 0.13166666666666665 -3.4529666666666667 0.1630333333333333Z" stroke-width="0.3333"></path></g></svg>