<svg xmlns="http://www.w3.org/2000/svg" fill="none" viewBox="0 0 16 16" id="Instagram--Streamline-Core" height="16" width="16"><desc>Instagram Streamline Icon: https://streamlinehq.com</desc><g id="instagram"><path id="Subtract" fill="#ffffff" fill-rule="evenodd" d="M3.8745942857142857 0.8989954285714286C2.231142857142857 0.8989954285714286 0.8988559999999999 2.23128 0.8988559999999999 3.874742857142857v7.935314285714285c0 1.6434285714285712 1.332286857142857 2.9757714285714285 2.975738285714286 2.9757714285714285h7.935348571428571c1.6434285714285712 0 2.9756571428571426 -1.332342857142857 2.9756571428571426 -2.9757714285714285V3.874742857142857c0 -1.643462857142857 -1.3322285714285713 -2.9757474285714283 -2.9756571428571426 -2.9757474285714283H3.8745942857142857ZM12.666514285714285 3.879051428571428c0 0.47338285714285716 -0.38377142857142854 0.8571428571428571 -0.8571428571428571 0.8571428571428571 -0.47339428571428566 0 -0.8571542857142856 -0.38375999999999993 -0.8571542857142856 -0.8571428571428571 0 -0.47339428571428566 0.38375999999999993 -0.8571428571428571 0.8571542857142856 -0.8571428571428571 0.47337142857142855 0 0.8571428571428571 0.38374857142857144 0.8571428571428571 0.8571428571428571ZM7.8424 5.46512c-1.3128914285714284 0 -2.3772114285714285 1.06432 -2.3772114285714285 2.3772114285714285S6.529508571428572 10.219542857142857 7.8424 10.219542857142857s2.3772114285714285 -1.06432 2.3772114285714285 -2.3772114285714285 -1.06432 -2.3772114285714285 -2.3772114285714285 -2.3772114285714285ZM4.322331428571428 7.842331428571429c0 -1.94408 1.5759885714285713 -3.5200685714285713 3.5200685714285713 -3.5200685714285713s3.5200685714285713 1.5759885714285713 3.5200685714285713 3.5200685714285713S9.78648 11.3624 7.8424 11.3624 4.322331428571428 9.786411428571428 4.322331428571428 7.842331428571429Z" clip-rule="evenodd" stroke-width="1.1429"></path></g></svg>